<?xml version="1.0" encoding="utf-8"?>
<!-- Generator: Adobe Illustrator 16.0.2, SVG Export Plug-In . SVG Version: 6.00 Build 0)  -->
<!DOCTYPE svg PUBLIC "-//W3C//DTD SVG 1.1//EN" "http://www.w3.org/Graphics/SVG/1.1/DTD/svg11.dtd">
<svg version="1.1" id="Слой_1" xmlns="http://www.w3.org/2000/svg" xmlns:xlink="http://www.w3.org/1999/xlink" x="0px" y="0px"
	 width="283px" height="336px" viewBox="-105.667 -109.833 283 336" enable-background="new -105.667 -109.833 283 336"
	 xml:space="preserve">
<linearGradient id="SVGID_1_" gradientUnits="userSpaceOnUse" x1="27.1104" y1="-163.2725" x2="27.1103" y2="157.8076" gradientTransform="matrix(1 0 0 -1 8.3398 54.8076)">
	<stop  offset="0" style="stop-color:#FDAD2F"/>
	<stop  offset="1" style="stop-color:#FFCA59"/>
</linearGradient>
<path fill="url(#SVGID_1_)" d="M163.693,24.382c0,81.702-126.691,193.698-126.691,193.698c0.004,0,0.174-65.975,0.174-65.975
	s-1.467,0-2.416,0c-70.446,0-127.552-57.104-127.552-127.555C-92.793-45.89-35.687-103,34.759-103
	C105.203-103,163.005-54.214,163.693,24.382z"/>
<linearGradient id="SVGID_2_" gradientUnits="userSpaceOnUse" x1="25.5986" y1="-48.1191" x2="25.5986" y2="108.0459" gradientTransform="matrix(1 0 0 -1 8.3398 54.8076)">
	<stop  offset="0" style="stop-color:#FDAD2F"/>
	<stop  offset="1" style="stop-color:#FFCA59"/>
</linearGradient>
<path fill="url(#SVGID_2_)" stroke="#343641" stroke-width="4.1369" stroke-miterlimit="10" d="M33.937-53.238
	c43.131,0,78.084,34.959,78.084,78.083c0,43.126-34.953,78.083-78.084,78.083c-43.122,0-78.081-34.956-78.081-78.083
	C-44.144-18.279-9.185-53.238,33.937-53.238z"/>
<g>
	<path fill-rule="evenodd" clip-rule="evenodd" fill="#FFFFFF" d="M34.025-8.689c11.824,0,23.649-0.002,35.474,0.002
		c3.315,0.001,5.894,1.959,6.621,5.059c0.146,0.616,0.183,1.269,0.183,1.905c0.01,16.148,0.012,32.297,0.004,48.445
		c-0.002,4.193-2.732,6.912-6.916,6.916c-5.365,0.005-10.73,0.014-16.096-0.014c-0.645-0.004-0.904,0.182-1.111,0.803
		c-2.786,8.35-10.688,13.903-19.488,13.734c-8.403-0.16-15.921-5.697-18.6-13.741c-0.209-0.626-0.48-0.8-1.119-0.796
		c-4.831,0.027-9.662,0.02-14.493,0.014c-4.18-0.005-6.909-2.73-6.911-6.924c-0.006-16.121-0.007-32.242,0-48.364
		c0.001-4.328,2.73-7.037,7.06-7.038C10.43-8.691,22.228-8.689,34.025-8.689z M53.11,50.754c0.312,0,0.548,0,0.784,0
		c5.177,0,10.354,0.004,15.531-0.001c2.553-0.002,3.995-1.454,3.998-4.036c0.004-7.287-0.004-14.573,0.012-21.858
		c0.002-0.558-0.158-0.93-0.599-1.286c-3.632-2.935-7.245-5.892-10.866-8.842c-0.18-0.147-0.372-0.278-0.573-0.427
		c-0.198,0.165-0.364,0.296-0.522,0.436c-3.797,3.359-7.594,6.72-11.391,10.081c-1.104,0.977-1.665,0.971-2.733-0.051
		c-4.513-4.317-9.022-8.638-13.534-12.955C29.38,8.143,25.542,4.473,21.684,0.78c-0.188,0.135-0.366,0.248-0.527,0.379
		C12.429,8.316,3.699,15.471-5.009,22.651c-0.292,0.24-0.514,0.747-0.515,1.13c-0.03,7.659-0.027,15.319-0.021,22.979
		c0.002,2.564,1.456,3.991,4.041,3.993c4.617,0.004,9.234,0.002,13.852,0c0.259-0.001,0.52-0.022,0.785-0.035
		c-1.82-11.867,8.039-23.171,20.628-22.797C44.955,28.255,54.625,38.201,53.11,50.754z M-5.547,19.294
		c0.36-0.276,0.552-0.415,0.735-0.566C3.587,11.841,11.985,4.954,20.384-1.935c1.165-0.955,1.655-0.936,2.744,0.106
		c8.138,7.788,16.276,15.576,24.416,23.362c0.203,0.195,0.416,0.38,0.63,0.576c0.25-0.215,0.434-0.368,0.611-0.526
		c3.779-3.341,7.556-6.687,11.338-10.025c0.928-0.82,1.508-0.826,2.459-0.049c3.394,2.764,6.784,5.531,10.178,8.295
		c0.172,0.14,0.361,0.259,0.665,0.475c0-0.425,0-0.688,0-0.951c0-6.966,0.002-13.933-0.001-20.9c0-2.828-1.406-4.234-4.224-4.234
		c-23.489,0-46.98,0-70.47,0c-2.879,0-4.274,1.389-4.275,4.266c-0.003,6.62-0.001,13.24-0.001,19.86
		C-5.547,18.58-5.547,18.84-5.547,19.294z M15.891,48.04c0.005,9.469,7.741,17.22,17.21,17.244
		c9.494,0.023,17.282-7.751,17.283-17.252c0-9.48-7.711-17.195-17.21-17.22C23.654,30.787,15.885,38.531,15.891,48.04z"/>
	<path fill-rule="evenodd" clip-rule="evenodd" fill="#FFFFFF" d="M21.632,9.836c-1.909,1.521-3.805,3.029-5.697,4.541
		c-5.357,4.276-10.713,8.554-16.069,12.832c-0.104,0.084-0.205,0.171-0.313,0.249c-0.749,0.531-1.555,0.462-2.071-0.176
		c-0.534-0.659-0.423-1.51,0.32-2.109c2.056-1.657,4.124-3.298,6.188-4.945c5.482-4.376,10.964-8.753,16.447-13.128
		c1.103-0.88,1.624-0.862,2.63,0.097c1.872,1.787,3.748,3.57,5.607,5.369c0.895,0.865,0.748,2.055-0.284,2.492
		c-0.681,0.289-1.235,0.05-1.737-0.435c-1.459-1.408-2.927-2.807-4.393-4.207C22.069,10.232,21.872,10.057,21.632,9.836z"/>
	<path fill-rule="evenodd" clip-rule="evenodd" fill="#FFFFFF" d="M61.462,23.226c-2.353,2.173-4.642,4.288-6.932,6.401
		c-0.176,0.163-0.345,0.335-0.537,0.478c-0.623,0.462-1.456,0.388-1.953-0.161c-0.49-0.544-0.498-1.406,0.045-1.957
		c0.616-0.626,1.281-1.205,1.926-1.802c2.033-1.883,4.065-3.768,6.104-5.646c0.934-0.86,1.504-0.875,2.514-0.075
		c1.588,1.257,3.172,2.519,4.751,3.786c0.779,0.625,0.936,1.492,0.409,2.155c-0.539,0.681-1.389,0.733-2.191,0.104
		C64.238,25.444,62.89,24.361,61.462,23.226z"/>
	<path fill-rule="evenodd" clip-rule="evenodd" fill="#FFFFFF" d="M31.699,42.786c-1.67,1.67-3.178,3.18-4.687,4.688
		c-0.5,0.499-1.078,0.697-1.743,0.366c-0.622-0.309-0.908-0.842-0.77-1.516c0.065-0.316,0.256-0.652,0.486-0.885
		c2.327-2.354,4.667-4.695,7.017-7.027c0.766-0.759,1.525-0.747,2.307,0.029c2.33,2.313,4.65,4.634,6.965,6.964
		c0.68,0.685,0.722,1.537,0.152,2.135c-0.607,0.637-1.467,0.609-2.188-0.104c-1.331-1.311-2.644-2.641-3.967-3.959
		c-0.181-0.182-0.374-0.35-0.688-0.639c0,0.435,0,0.715,0,0.996c0,4.244,0.007,8.488-0.004,12.732
		c-0.002,1.254-1.063,1.999-2.08,1.48c-0.653-0.336-0.807-0.92-0.805-1.613c0.013-4.191,0.007-8.382,0.007-12.572
		C31.699,43.579,31.699,43.292,31.699,42.786z"/>
</g>
</svg>
