<?xml version="1.0" encoding="utf-8"?>
<!-- Generator: Adobe Illustrator 16.0.2, SVG Export Plug-In . SVG Version: 6.00 Build 0)  -->
<!DOCTYPE svg PUBLIC "-//W3C//DTD SVG 1.1//EN" "http://www.w3.org/Graphics/SVG/1.1/DTD/svg11.dtd">
<svg version="1.1" id="Слой_1" xmlns="http://www.w3.org/2000/svg" xmlns:xlink="http://www.w3.org/1999/xlink" x="0px" y="0px"
	 width="150px" height="148px" viewBox="0 0 150 148" enable-background="new 0 0 150 148" xml:space="preserve">
<g>
	<path fill="#494A54" d="M146,105.463c0,22.091-17.908,40-40,40H43.333c-22.092,0-40-17.908-40-40V42.796c0-22.091,17.908-40,40-40
		H106c22.092,0,40,17.909,40,40V105.463z"/>
	<g>
		<g>
			<g>
				<path fill="#343641" d="M110.398,95.952c-11.146,0-22.234,0-33.398,0c0-0.24,0-0.466,0-0.684c0-10.812,0-21.632,0.019-32.449
					c0-0.479-0.15-0.734-0.568-0.978c-4.967-2.899-9.921-5.813-14.872-8.737c-0.392-0.229-0.659-0.25-1.065,0.009
					c-5.064,3.239-10.144,6.457-15.225,9.668c-0.335,0.207-0.363,0.453-0.363,0.785c0.004,10.939,0.004,21.875,0.004,32.818
					c0,0.259,0,0.522,0,0.824c-1.859,0-3.678,0-5.558,0c-0.013-0.178-0.028-0.362-0.028-0.549c-0.003-12.073,0-24.153-0.01-36.229
					c0-0.346,0.097-0.566,0.402-0.759c6.883-4.357,13.762-8.722,20.627-13.098c0.412-0.26,0.706-0.27,1.124-0.016
					c1.763,1.069,3.553,2.102,5.33,3.143c0.144,0.087,0.293,0.166,0.513,0.288c0-9.515,0-18.955,0-28.433
					c14.375,0,28.701,0,43.069,0C110.398,46.337,110.398,71.125,110.398,95.952z M82.684,77.41c0,4.357,0,8.649,0,12.951
					c7.385,0,14.726,0,22.086,0c0-21.101,0-42.174,0-63.231c-10.628,0-21.204,0-31.793,0c-0.014,0.125-0.032,0.207-0.032,0.297
					c0,8.505-0.004,17.009,0.013,25.515c0,0.19,0.175,0.453,0.35,0.553c1.918,1.149,3.855,2.277,5.779,3.411
					c0.656,0.388,2.062,1.199,2.062,1.199l1.556,0.7c0,0-0.02,2.093-0.02,2.845c1.769,0,3.493,0,5.236,0c0,2.296,0,4.539,0,6.819
					c-1.774,0-3.499,0-5.255,0c0,0.671,0,1.309,0,1.99"/>
				<g>
					<path fill="#343641" d="M96.561,34.489c0,2.271,0,4.489,0,6.75c-2.25,0-4.491,0-6.734,0c0-2.249,0-4.488,0-6.75
						C92.094,34.489,94.292,34.489,96.561,34.489z"/>
				</g>
				<g>
					<path fill="#343641" d="M96.561,43.551c0,2.271,0,4.49,0,6.751c-2.25,0-4.491,0-6.734,0c0-2.249,0-4.489,0-6.751
						C92.094,43.551,94.292,43.551,96.561,43.551z"/>
				</g>
				<g>
					<path fill="#343641" d="M87.964,34.489c0,2.271,0,4.489,0,6.75c-2.242,0-4.492,0-6.735,0c0-2.249,0-4.488,0-6.75
						C83.496,34.489,85.696,34.489,87.964,34.489z"/>
				</g>
				<g>
					<path fill="#343641" d="M87.964,43.551c0,2.271,0,4.49,0,6.751c-2.242,0-4.492,0-6.735,0c0-2.249,0-4.489,0-6.751
						C83.496,43.551,85.696,43.551,87.964,43.551z"/>
				</g>
				<g>
					<path fill="#343641" d="M69.069,63.874c0,2.271,0,4.492,0,6.753c-2.247,0-4.489,0-6.738,0c0-2.252,0-4.491,0-6.753
						C64.599,63.874,66.801,63.874,69.069,63.874z"/>
				</g>
				<g>
					<path fill="#343641" d="M69.069,72.94c0,2.27,0,4.491,0,6.753c-2.247,0-4.489,0-6.738,0c0-2.252,0-4.492,0-6.753
						C64.599,72.94,66.801,72.94,69.069,72.94z"/>
				</g>
				<g>
					<path fill="#343641" d="M60.476,63.874c0,2.271,0,4.492,0,6.753c-2.247,0-4.492,0-6.738,0c0-2.252,0-4.491,0-6.753
						C56.005,63.874,58.201,63.874,60.476,63.874z"/>
				</g>
				<g>
					<path fill="#343641" d="M60.476,72.94c0,2.27,0,4.491,0,6.753c-2.247,0-4.492,0-6.738,0c0-2.252,0-4.492,0-6.753
						C56.005,72.94,58.201,72.94,60.476,72.94z"/>
				</g>
				<g>
					<path fill="#343641" d="M96.561,52.716c0,2.271,0,4.489,0,6.75c-2.25,0-4.491,0-6.734,0c0-2.252,0-4.488,0-6.75
						C92.094,52.716,94.292,52.716,96.561,52.716z"/>
				</g>
				<g>
					<path fill="#343641" d="M87.964,52.716c0,2.271,0,4.489,0,6.75c-1.762,0-5.273,0-5.273,0l0.031-0.637
						c0,0-1.412-0.728-1.493-0.728s0-3.586,0-5.389C83.496,52.716,85.696,52.716,87.964,52.716z"/>
				</g>
				<g>
					<path fill="#343641" d="M96.561,61.713c0,2.271,0,4.492,0,6.753c-2.25,0-4.491,0-6.734,0c0-2.252,0-4.492,0-6.753
						C92.094,61.713,94.292,61.713,96.561,61.713z"/>
				</g>
				<g>
					<path fill="#343641" d="M87.964,61.713c0,2.271,0,4.492,0,6.753c-1.756,0-3.512,0-5.267,0c0-2.252,0-4.492,0-6.753
						C84.466,61.713,86.184,61.713,87.964,61.713z"/>
				</g>
				<g>
					<path fill="#343641" d="M87.964,70.578c0,2.271,0,4.489,0,6.75c-1.756,0-3.512,0-5.267,0c0-2.252,0-4.488,0-6.75
						C84.466,70.578,86.184,70.578,87.964,70.578z"/>
				</g>
				<g>
					<path fill="#343641" d="M96.561,70.641c0,2.271,0,4.492,0,6.753c-2.25,0-4.491,0-6.734,0c0-2.252,0-4.492,0-6.753
						C92.094,70.641,94.292,70.641,96.561,70.641z"/>
				</g>
			</g>
		</g>
	</g>
	<text transform="matrix(1 0 0 1 37.8457 115.9092)" fill="#242530" font-family="'OpenSansHebrew-Bold'" font-size="15.7889">הנומת ןיא</text>
</g>
</svg>
